<svg width="78" height="49" viewBox="0 0 78 49" fill="none" xmlns="http://www.w3.org/2000/svg">
<path fill-rule="evenodd" clip-rule="evenodd" d="M46.956 1.85563C48.1667 0.870335 50.1222 0 52.6425 0C53.6947 0 54.5807 0.160063 54.8677 0.212313C55.3123 0.293278 55.7517 0.393708 56.1453 0.499347C56.1511 0.500907 56.1584 0.50286 56.1673 0.505207C56.3618 0.556738 57.2741 0.798429 58.1565 1.24879C58.3797 1.36273 59.1595 1.7631 59.8667 2.46454C59.9512 2.5483 60.0622 2.66664 60.185 2.8156C61.2155 3.17016 62.0905 3.59311 62.7674 3.96771C63.8991 4.59398 65.0251 5.39014 65.906 6.28222C66.0509 6.42892 66.2053 6.56302 66.5746 6.88383C66.6208 6.92393 66.6703 6.96694 66.7236 7.01326C67.128 7.36485 67.7634 7.92108 68.3629 8.59557C68.4861 8.73424 68.5982 8.85991 68.7158 8.98684C68.8331 9.11344 68.936 9.21976 69.0246 9.30585C69.0304 9.3115 69.036 9.31693 69.0415 9.32214C69.5369 9.59951 70.2538 10.0195 70.9506 10.482C71.3948 10.7769 71.9862 11.191 72.5299 11.6659C72.801 11.9027 73.1684 12.2479 73.5122 12.6764C73.7695 12.997 74.266 13.6687 74.4992 14.5842C74.5384 14.6688 74.6187 14.8424 74.6888 15.0099C74.7786 15.2242 74.9009 15.5406 74.9954 15.9168C75.284 17.065 75.3368 18.054 75.3368 18.9554C75.3368 19.0742 75.3447 19.2818 75.3549 19.5502C75.3888 20.4408 75.4483 22.0002 75.3286 23.1989C75.162 24.8676 74.5986 27.64 71.8273 29.8802C71.8009 29.9016 71.7339 29.9589 71.5568 30.1322C71.5338 30.1547 71.5012 30.1868 71.4614 30.2262C71.3032 30.3826 71.0304 30.6523 70.7889 30.8753C70.0722 31.5369 68.8788 32.5229 66.9755 33.2878C66.8634 33.3328 66.6016 33.4605 65.8909 33.8885C65.8168 33.9331 65.7325 33.9843 65.6394 34.041C65.0567 34.3954 64.1272 34.9607 63.1676 35.4339C60.0713 36.9609 56.1062 37.418 54.1534 37.5988C54.0783 37.6207 53.8992 37.6753 53.5776 37.793C53.4065 37.8556 53.2309 37.922 52.9999 38.0093C52.7847 38.0907 52.517 38.1919 52.2388 38.2931C51.7729 38.4625 51.1702 38.6719 50.4783 38.8661C50.3895 38.9119 50.2791 38.9712 50.1129 39.0618C50.0902 39.0742 50.065 39.088 50.0379 39.1028C49.8744 39.1921 49.6379 39.3214 49.4104 39.4403C48.8478 39.7342 48.3216 39.9524 47.9117 40.1094C47.5656 40.242 47.2205 40.3609 47.0285 40.4271C47.0074 40.4344 46.9881 40.441 46.9708 40.447C46.8791 40.4787 46.8117 40.5027 46.7645 40.5198C45.8982 40.9722 45.0656 41.2123 44.487 41.3447C44.3901 41.3669 44.2955 41.3871 44.2043 41.4054C44.1917 41.4115 44.1785 41.4178 44.1649 41.4244L44.0934 41.4589C43.9394 41.5331 43.7284 41.6344 43.499 41.7395C41.9194 42.4631 40.2962 42.8142 39.0905 42.9993C38.98 43.0519 38.8178 43.1338 38.5864 43.2593C38.3975 43.3618 38.1992 43.4729 37.9544 43.6108L37.8897 43.6472C37.6732 43.7692 37.4143 43.915 37.1544 44.0574C36.6035 44.3593 35.8069 44.7809 34.8881 45.1501C34.8376 45.1704 34.7832 45.1924 34.7252 45.2158C34.0984 45.4686 33.0489 45.8921 31.931 46.2394C31.1745 46.4744 30.1363 46.7576 28.9102 46.933C28.1151 47.6859 26.1334 49.0693 22.9178 48.9973C20.1104 48.9344 18.4195 47.766 17.9381 47.4073C17.8514 47.3427 17.7688 47.2777 17.6904 47.2127C17.3137 47.1764 16.9836 47.1278 16.7105 47.0806C16.1893 46.9905 15.7546 46.8832 15.543 46.8303C15.5348 46.8283 15.5267 46.8262 15.5187 46.8242C13.958 46.6229 12.7186 46.2071 11.9585 45.925C11.5126 45.7595 11.1071 45.5912 10.8425 45.4813L10.8222 45.4729C10.5235 45.3487 10.3922 45.2941 10.2725 45.2483C9.176 44.8285 8.37569 44.3141 7.83344 43.9056C7.30134 43.5048 6.90288 43.1168 6.67023 42.8831C6.55967 42.772 6.45448 42.6628 6.38419 42.5898L6.36769 42.5727C6.32282 42.5261 6.29024 42.4925 6.26454 42.4661C3.49129 40.4354 0.240413 37.4748 0.237686 32.9152C0.237358 32.9093 0.235771 32.8838 0.229301 32.8315C0.218188 32.7415 0.201917 32.64 0.16969 32.4443C0.16697 32.4278 0.164081 32.4104 0.161049 32.3921C0.105072 32.0544 0 31.4206 0 30.7223C0 29.3266 0.598256 28.2106 1.35181 27.3567C1.18253 26.9593 1.02412 26.463 0.969487 25.904C0.96286 25.8733 0.948741 25.8072 0.934512 25.7286C0.908059 25.5825 0.846871 25.2198 0.87147 24.7631C0.899118 24.2497 1.02769 23.7083 1.29294 23.1616C1.53936 22.6537 1.84316 22.2678 2.05203 22.0279C2.35636 21.6783 2.72725 21.3505 2.77177 21.3112C2.77404 21.3092 2.77546 21.3079 2.77598 21.3075C4.18673 20.032 5.99828 19.5926 6.3942 19.4965C6.40339 19.4943 6.41182 19.4923 6.41946 19.4904C7.0959 19.3253 7.70464 19.2435 8.07729 19.2008C8.83295 19.1141 9.57485 19.0829 10.097 19.0829C10.101 19.0829 10.1049 19.0829 10.1089 19.0829C10.4136 18.9036 10.6764 18.7702 10.8103 18.7027C10.8324 18.6915 10.8552 18.6801 10.8775 18.669C12.8349 17.3522 14.8934 16.693 16.6116 16.2917C17.3691 16.1148 18.1275 15.9744 18.6606 15.8756C18.7093 15.8666 18.7561 15.858 18.8008 15.8496C19.4092 15.7366 19.8083 15.659 20.1788 15.5696C21.2397 15.3138 22.7662 14.9976 24.5552 14.9618C25.825 14.6902 27.4058 14.4411 28.9929 14.4411C29.2187 14.4411 29.4551 14.4432 29.6615 14.4454C29.7312 14.3707 29.8112 14.2838 29.9028 14.1828C29.9351 14.1471 29.9706 14.1076 30.0092 14.0647C30.5575 13.4541 31.7328 12.1455 33.5387 11.1004C34.9928 10.2591 36.4314 9.26326 37.2844 8.46995C37.309 8.44708 37.3366 8.42115 37.3672 8.39239C37.8732 7.91672 39.1996 6.66985 41.3484 5.76878C41.5029 5.6336 41.6753 5.49476 41.8664 5.35644C41.867 5.35594 41.8869 5.34119 41.9346 5.30333C41.9949 5.2554 42.0595 5.20271 42.1708 5.1118L42.1939 5.093C42.3906 4.93242 42.7302 4.65525 43.1225 4.37146C43.3076 4.23758 43.4724 4.10688 43.7638 3.87583L43.7894 3.85553C44.0465 3.65161 44.4637 3.3208 44.9467 2.99057C45.5254 2.59489 46.1842 2.20782 46.956 1.85563ZM55.4258 20.4881C55.4257 20.4883 55.4161 20.49 55.3978 20.4925C55.4168 20.4891 55.426 20.4879 55.4258 20.4881ZM57.2961 15.7213C57.2955 15.727 57.295 15.7299 57.295 15.73C57.2949 15.73 57.2952 15.7271 57.2961 15.7213ZM6.18478 42.3865C6.18472 42.3863 6.18844 42.3898 6.19615 42.3973C6.1887 42.3904 6.18485 42.3867 6.18478 42.3865ZM39.2668 42.9215C39.2667 42.9216 39.2626 42.9232 39.2546 42.9261C39.2628 42.9229 39.2668 42.9214 39.2668 42.9215Z" fill="#FFA530"/>
<path fill-rule="evenodd" clip-rule="evenodd" d="M53.1731 1.41693C52.8986 1.43634 52.8092 1.49346 52.7765 1.52265C52.4696 1.79677 51.9992 1.93738 51.6902 2.01657C51.3357 2.10743 50.9296 2.17892 50.5617 2.23952C50.4386 2.2598 50.3204 2.27877 50.2064 2.29707C49.9578 2.33697 49.7289 2.37372 49.5112 2.41399C49.1814 2.47498 48.9992 2.52345 48.9216 2.55464C48.3734 2.77499 47.8759 3.05886 47.3005 3.38716L47.2505 3.41568C46.6763 3.74321 46.0232 4.11284 45.2628 4.39883C43.5021 5.06102 41.634 6.03597 40.2325 7.03747C38.6747 8.15068 37.5776 9.45135 36.4114 10.8338C36.3583 10.8968 36.305 10.96 36.2515 11.0234C35.0441 12.4532 33.7421 13.958 31.7918 15.2123C30.8244 15.8345 29.5145 15.8214 28.5804 15.7786C28.354 15.7682 28.126 15.7541 27.9111 15.7408C27.8876 15.7394 27.8644 15.7379 27.8413 15.7365C27.6014 15.7218 27.3776 15.7085 27.1617 15.7003C26.7214 15.6835 26.3791 15.6913 26.1104 15.734C25.162 15.8846 24.2092 16.1628 23.1566 16.47C23.0033 16.5148 22.8479 16.5601 22.69 16.6058C21.4945 16.9519 20.1715 17.3115 18.797 17.4149C17.1184 17.5412 15.4508 18.0819 13.6143 18.6775C13.525 18.7065 13.4352 18.7356 13.345 18.7648C11.4837 19.3674 9.41824 20.0161 7.28952 20.0161C6.46357 20.0161 5.72913 20.288 5.04951 20.8243C4.3564 21.3712 3.76994 22.1589 3.29916 23.0775C2.802 24.0475 2.46053 25.1098 2.24895 26.0783C2.449 26.2074 2.57472 26.3943 2.57472 26.602C2.57472 27.8629 2.80129 28.8416 3.29168 29.7027C3.78129 30.5624 4.55976 31.3502 5.75347 32.2032C6.92696 33.0418 7.75017 34.0153 8.48637 34.9364C8.58717 35.0625 8.68612 35.1873 8.78401 35.3108C9.41835 36.1108 10.0077 36.8542 10.7614 37.5274C11.7115 38.3761 13.3417 39.0169 15.249 39.4435C17.1371 39.8657 19.1746 40.0506 20.7944 40.0506C26.0989 40.0506 32.6505 39.4559 37.4108 38.2784C38.5431 37.9984 40.4745 37.1208 42.3386 36.0533C43.2542 35.529 44.1226 34.9765 44.8352 34.457C45.5602 33.9284 46.0768 33.4678 46.3371 33.1268C47.6299 31.4332 49.1737 30.545 51.0725 30.1214C52.731 29.7513 54.6173 29.7538 56.6077 29.7563C56.7736 29.7565 56.9402 29.7568 57.1074 29.7568C58.1693 29.7568 59.0479 29.875 59.8378 29.9814L59.8528 29.9834C60.6543 30.0913 61.3628 30.1857 62.2092 30.1857C63.0321 30.1857 63.6875 29.9387 64.5371 29.5559C64.6136 29.5214 64.6921 29.4856 64.7727 29.4488C65.5382 29.0993 66.4966 28.6617 67.7013 28.5052C68.5074 28.4005 69.0606 28.1713 69.463 27.8775C69.8757 27.5763 70.1776 27.1714 70.3902 26.6704C70.8254 25.6447 70.8254 24.3837 70.8254 23.1786V23.1708C70.8254 16.9518 66.1728 9.8444 60.0106 5.44098C59.2596 4.90432 58.6986 4.31376 58.2058 3.79507C58.1494 3.73561 58.0938 3.67709 58.0389 3.61971C57.4875 3.04312 56.9947 2.56432 56.3239 2.18088C56 1.99567 55.15 1.67242 54.2649 1.50755C53.8295 1.42645 53.4539 1.39707 53.1731 1.41693ZM0.934386 29.0222C1.06639 29.4422 1.24069 29.8445 1.46282 30.2345C2.07772 31.3142 3.03321 32.2548 4.35729 33.2009C5.32861 33.895 6.04209 34.7231 6.77181 35.6361C6.86628 35.7543 6.96133 35.8744 7.05744 35.9958C7.68558 36.7893 8.35941 37.6405 9.21957 38.4089C10.5224 39.5726 12.5833 40.3258 14.6593 40.79C16.7545 41.2586 18.9924 41.4615 20.7944 41.4615C26.2482 41.4615 33.0311 40.8549 38.0567 39.6118C39.5271 39.2481 41.679 38.2392 43.5734 37.1544C44.5371 36.6025 45.4666 36.0123 46.2453 35.4447C47.0114 34.8862 47.6791 34.3153 48.0706 33.8024C49.1566 32.3796 50.3232 31.7667 51.661 31.4682C53.0172 31.1656 54.6029 31.1665 56.7117 31.1676C56.8416 31.1676 56.9735 31.1677 57.1074 31.1677C57.9703 31.1677 58.688 31.2624 59.4872 31.37L59.5211 31.3745C60.3037 31.4799 61.1703 31.5966 62.2092 31.5966C63.6445 31.5966 64.7212 31.1409 65.5902 30.7494C65.6624 30.7169 65.7332 30.6849 65.8026 30.6534C66.6144 30.2858 67.2503 29.9979 68.0545 29.8934C69.2347 29.7401 70.1664 29.3812 70.8742 28.8645C71.5717 28.3552 72.0052 27.727 72.2797 27.0799C72.8012 25.8509 72.8005 24.4117 72.8 23.2782C72.8 23.2421 72.7999 23.2063 72.7999 23.1708C72.7999 16.5263 67.8851 9.07263 61.4068 4.44327C60.7956 4.00653 60.3395 3.52744 59.8344 2.99695C59.7799 2.93978 59.7249 2.88201 59.6691 2.82363C59.1131 2.24223 58.479 1.60596 57.5574 1.0791C56.9809 0.749551 55.8679 0.348033 54.7629 0.142205C54.2032 0.037949 53.577 -0.0295062 52.9786 0.0128197C52.3878 0.0546065 51.7374 0.212161 51.2677 0.612433C51.2516 0.618517 51.1841 0.647307 51.0236 0.688449C50.7886 0.74869 50.4823 0.804637 50.1182 0.864602C50.0202 0.880749 49.9164 0.897424 49.8098 0.914532C49.5463 0.956852 49.2663 1.00183 49.0165 1.04803C48.6778 1.11067 48.2748 1.19576 47.9536 1.32488C47.2622 1.6028 46.6512 1.95177 46.1096 2.26107C46.0791 2.2785 46.0488 2.2958 46.0187 2.31296C45.4323 2.64746 44.9153 2.93508 44.3432 3.15024C42.4125 3.87635 40.3826 4.93483 38.8363 6.03977C37.1027 7.27857 35.8917 8.71552 34.7535 10.066C34.6891 10.1424 34.6249 10.2186 34.5609 10.2944C33.3459 11.7332 32.1766 13.0665 30.471 14.1635C30.1802 14.3505 29.6747 14.4149 28.7069 14.3705C28.5037 14.3612 28.2979 14.3485 28.0797 14.335L28.0107 14.3308C27.7717 14.316 27.5185 14.3009 27.2666 14.2913C26.7714 14.2725 26.2155 14.2719 25.682 14.3566C24.5567 14.5353 23.4329 14.8642 22.3974 15.1673C22.2459 15.2116 22.0962 15.2554 21.9488 15.2981C20.7475 15.6458 19.6575 15.9314 18.5903 16.0117C16.5806 16.1629 14.6368 16.7948 12.8868 17.3638C12.767 17.4027 12.6481 17.4414 12.5302 17.4796C10.6072 18.1021 8.92437 18.6051 7.28952 18.6051C5.76046 18.6051 4.52962 19.1326 3.586 19.8771C2.65588 20.611 1.96114 21.5854 1.4451 22.5922C0.412999 24.6059 0 26.9413 0 28.3177C0 28.6946 0.413721 29.0025 0.934386 29.0222Z" fill="black"/>
<path fill-rule="evenodd" clip-rule="evenodd" d="M56.5151 0.722778C56.5151 0.323599 56.9629 0 57.5153 0C58.9005 0 59.8675 0.750971 60.4934 1.28017C60.6647 1.42495 60.8058 1.54979 60.939 1.66753C61.106 1.8152 61.2603 1.95168 61.4454 2.10226C61.7489 2.34916 61.9949 2.51104 62.2107 2.60204C63.6798 3.22129 64.9606 4.16494 66.0947 5.00048C66.3006 5.15221 66.5018 5.30039 66.6983 5.4424C67.4695 5.99972 68.2941 6.5201 69.1503 7.06015L69.158 7.06504C70.0033 7.59827 70.8794 8.15087 71.7095 8.75071C72.3897 9.24229 72.9185 9.76849 73.3905 10.28C73.5734 10.4783 73.7412 10.6666 73.9049 10.8503C74.1823 11.1615 74.4478 11.4595 74.7548 11.77C74.8345 11.8507 74.9255 11.9399 75.0222 12.0349C75.2482 12.2566 75.5055 12.5091 75.7246 12.7549C76.0501 13.1202 76.3697 13.5515 76.5245 14.0408C76.7185 14.6543 76.8264 15.2876 76.9182 15.8902C76.9346 15.9976 76.9504 16.1038 76.9661 16.2088C77.0402 16.7058 77.1105 17.1777 77.2165 17.6373C77.2648 17.8466 77.3321 18.0351 77.41 18.2535C77.4403 18.3383 77.4721 18.4275 77.5051 18.5242C77.6155 18.8481 77.7251 19.2247 77.7251 19.645C77.7251 20.3542 77.7869 21.1214 77.8531 21.9421C77.8662 22.1048 77.8795 22.2696 77.8925 22.4365C77.9701 23.4323 78.0361 24.4877 77.9776 25.5277C77.8614 27.5948 77.2482 29.7332 75.0657 31.3104C72.9578 32.8336 70.6859 34.288 68.0886 35.5268C66.7222 36.1785 65.2056 36.6609 63.7158 37.0777C63.0343 37.2683 62.3882 37.4379 61.7587 37.6031C60.9505 37.8152 60.1698 38.0201 59.377 38.2531C58.0369 38.647 56.6708 38.9943 55.3309 39.3349L55.2793 39.348C53.915 39.6948 52.5779 40.0355 51.2743 40.4208C50.844 40.5481 50.3716 40.7001 49.8761 40.8596C48.7543 41.2208 47.5141 41.6201 46.3757 41.8551C45.9982 41.933 45.6366 42.1176 45.1139 42.4118C45.0823 42.4296 45.0499 42.4479 45.0168 42.4666C44.5624 42.7236 43.9643 43.0617 43.2566 43.2477C42.681 43.3989 42.0609 43.6469 41.3828 43.9413C41.2147 44.0143 41.041 44.0911 40.8641 44.1694C40.3604 44.3921 39.8303 44.6266 39.3284 44.8175C38.5522 45.1127 37.7889 45.4294 37.0074 45.7536L36.8558 45.8164C36.0275 46.16 35.1787 46.5101 34.3078 46.8328C33.3967 47.1704 32.4593 47.4611 31.5608 47.7398C31.4993 47.7588 31.4381 47.7778 31.377 47.7968C30.4107 48.0967 29.4904 48.3867 28.6184 48.7261C27.9217 48.9972 27.0553 49.0108 26.4161 48.996C26.1015 48.9887 25.7854 48.9718 25.5064 48.9569L25.4307 48.9528C25.1204 48.9363 24.87 48.9242 24.6642 48.9242C22.898 48.9242 21.2426 48.8465 19.5116 48.7075C13.2794 48.2071 8.58729 45.6384 4.81968 42.3108C4.04138 41.6234 3.0676 40.7186 2.24915 39.7428C1.44136 38.7797 0.72716 37.681 0.562917 36.6128C0.508025 36.2558 0.433318 35.8846 0.35628 35.5019C0.183971 34.6457 0 33.7317 0 32.7888V28.8881C0 28.4889 0.447805 28.1653 1.0002 28.1653C1.5526 28.1653 2.0004 28.4889 2.0004 28.8881V32.7888C2.0004 33.628 2.14994 34.3649 2.31182 35.1626C2.39444 35.5697 2.48028 35.9927 2.55108 36.4532C2.66724 37.2086 3.20337 38.0916 3.95984 38.9935C4.70565 39.8827 5.61007 40.7261 6.3679 41.3954C9.94579 44.5555 14.2063 46.827 19.7325 47.2708C21.4025 47.4048 22.9833 47.4787 24.6642 47.4787C24.9557 47.4787 25.2793 47.4953 25.5776 47.5112L25.6483 47.515C25.9346 47.5302 26.2097 47.5449 26.4802 47.5512C27.113 47.5659 27.4892 47.5236 27.67 47.4533C28.6299 47.0798 29.6265 46.7669 30.5875 46.4686C30.644 46.4511 30.7004 46.4336 30.7567 46.4161C31.6692 46.133 32.5472 45.8607 33.3949 45.5465C34.2185 45.2413 35.0293 44.9072 35.8601 44.5627L36.0192 44.4967C36.7935 44.1754 37.5868 43.8463 38.3967 43.5383C38.8368 43.3709 39.2829 43.1736 39.7672 42.9595C39.9558 42.876 40.1503 42.79 40.3525 42.7023C41.0415 42.4031 41.8026 42.0916 42.573 41.8891C42.9741 41.7837 43.3425 41.5765 43.8848 41.2713L43.8879 41.2695C44.372 40.9971 45.0221 40.6312 45.8262 40.4652C46.8294 40.258 47.8355 39.9333 48.8845 39.5947C49.4159 39.4231 49.9583 39.248 50.5169 39.0829C51.8742 38.6816 53.2582 38.3294 54.6154 37.9844L54.646 37.9766C56.0004 37.6323 57.328 37.2948 58.6232 36.9141C59.4151 36.6813 60.2888 36.4513 61.1508 36.2244C61.7837 36.0578 62.4103 35.8928 62.9936 35.7296C64.438 35.3255 65.7985 34.887 66.9867 34.3203C69.4325 33.1538 71.5988 31.7714 73.6512 30.2882C75.2996 29.0971 75.8697 27.4107 75.9789 25.469C76.0331 24.5046 75.9725 23.5095 75.8952 22.5178C75.8828 22.358 75.8699 22.198 75.8569 22.038C75.7907 21.2177 75.7247 20.4002 75.7247 19.645C75.7247 19.4024 75.6622 19.1615 75.5628 18.87C75.5411 18.8063 75.5164 18.7373 75.4903 18.6643C75.4062 18.429 75.3073 18.1521 75.2434 17.8749C75.1269 17.37 75.0492 16.8481 74.9751 16.3502C74.96 16.2485 74.945 16.1478 74.9298 16.0484C74.8386 15.4499 74.7406 14.8885 74.5744 14.363C74.4936 14.1077 74.3114 13.8391 74.0427 13.5376C73.8575 13.3297 73.6661 13.1422 73.4602 12.9404C73.3534 12.8358 73.2427 12.7273 73.127 12.6102C72.7968 12.2762 72.48 11.9212 72.1821 11.5875C72.0245 11.4109 71.8722 11.2403 71.726 11.0819C71.2829 10.6016 70.8389 10.1659 70.295 9.77287C69.5182 9.21153 68.6907 8.68906 67.8348 8.14918L67.8184 8.13885C66.976 7.60749 66.1057 7.05849 65.2838 6.46456C65.0586 6.3018 64.8379 6.1398 64.6203 5.97998C63.4785 5.14154 62.4185 4.36315 61.2028 3.85068C60.7076 3.64196 60.2925 3.34102 59.9499 3.0623C59.7608 2.90851 59.541 2.7153 59.338 2.5369C59.2045 2.4195 59.0782 2.30851 58.9728 2.21938C58.2954 1.64665 57.8777 1.44556 57.5153 1.44556C56.9629 1.44556 56.5151 1.12196 56.5151 0.722778Z" fill="black"/>
<path fill-rule="evenodd" clip-rule="evenodd" d="M47.5784 3.93345C48.4303 3.73138 49.7513 3.61277 50.7489 4.21616C51.2479 4.518 51.6283 4.87703 51.8337 5.30434C52.0407 5.73465 52.0314 6.15332 51.9267 6.52281C51.7608 7.10827 51.3026 7.68682 50.9737 8.10211C50.9306 8.15663 50.8896 8.20833 50.8519 8.25687C50.5537 8.64005 50.1731 8.94287 49.6995 9.14534C49.2283 9.34683 48.7474 9.41369 48.3215 9.42238C47.9104 9.43076 47.5196 9.38498 47.2151 9.34377C47.0993 9.3281 46.9992 9.31372 46.9085 9.30068C46.7265 9.27452 46.582 9.25376 46.4233 9.23876C46.1131 9.20945 45.8438 9.09632 45.6503 8.93319C45.4787 8.90139 45.3068 8.85253 45.1408 8.78098C44.7664 8.61955 44.5095 8.3797 44.3621 8.11435C44.1008 7.64401 44.2091 7.14717 44.3079 6.842C44.5219 6.18161 45.0227 5.48932 45.2184 5.22299C45.4736 4.87566 45.8737 4.60668 46.2522 4.41289C46.6464 4.21106 47.1052 4.04566 47.5784 3.93345ZM47.1682 7.4201C47.2695 7.4338 47.3674 7.44784 47.4563 7.46058C47.5295 7.47108 47.5966 7.4807 47.6544 7.48852C47.9256 7.52523 48.1093 7.54128 48.2543 7.53832C48.3845 7.53567 48.4414 7.51802 48.4723 7.50478C48.501 7.49251 48.5871 7.45036 48.7031 7.30127C48.7528 7.23737 48.8004 7.17681 48.846 7.11873C48.9923 6.93245 49.1186 6.7716 49.232 6.60774C49.3776 6.39725 49.4562 6.24405 49.4891 6.12799C49.5185 6.02422 49.5043 5.97631 49.4908 5.9483C49.476 5.91735 49.4205 5.82655 49.1926 5.6885C49.1893 5.6869 49.1356 5.66096 48.9822 5.65506C48.8109 5.64846 48.5816 5.67082 48.3246 5.73177C48.0703 5.79209 47.8329 5.87984 47.65 5.97346C47.4744 6.0634 47.4088 6.1276 47.3988 6.13733C47.3975 6.1386 47.3972 6.13894 47.3976 6.1383C47.2089 6.39509 46.9103 6.82516 46.7656 7.18987C46.9199 7.24535 47.0568 7.32409 47.1682 7.4201ZM46.2146 7.0986C46.2146 7.0986 46.2152 7.09862 46.2163 7.09871C46.2152 7.09866 46.2146 7.09861 46.2146 7.0986Z" fill="black"/>
<path fill-rule="evenodd" clip-rule="evenodd" d="M42.6395 21.0243C42.762 21.0568 42.8625 21.0832 42.9513 21.1045C43.8546 21.3202 44.1891 21.8542 44.1997 22.3218C44.2099 22.7702 43.9473 23.2345 43.5404 23.5956C43.1326 23.9574 42.4874 24.2936 41.6506 24.3472C41.3115 24.3689 40.9782 24.3421 40.656 24.2706C40.4856 24.4103 40.2237 24.4997 39.93 24.4997C39.4164 24.4997 39 24.2262 39 23.8889C39 23.6973 39.0064 23.5119 39.0185 23.3303C38.9869 23.2277 38.9959 23.1212 39.0446 23.0216C39.0881 22.5977 39.1612 22.1881 39.2538 21.7622C39.3261 21.4301 39.5427 21.1044 40.0141 20.9031C40.4575 20.7138 40.944 20.715 41.2848 20.746C41.6342 20.7778 41.9766 20.8547 42.2466 20.922C42.3745 20.9538 42.5 20.9872 42.6106 21.0166C42.6204 21.0192 42.63 21.0217 42.6395 21.0243ZM40.9133 22.9854C41.1893 23.1296 41.3792 23.1371 41.4701 23.1313C41.6273 23.1212 41.8436 23.0478 42.0454 22.8687C42.2481 22.6889 42.3432 22.4809 42.34 22.34C42.3389 22.291 42.3265 22.2644 42.3201 22.2537C42.3188 22.2533 42.3173 22.253 42.3157 22.2526C42.1912 22.2229 42.061 22.1884 41.9423 22.1569C41.9335 22.1545 41.9248 22.1522 41.9162 22.1499C41.8022 22.1196 41.6949 22.0911 41.5869 22.0642C41.3801 22.0127 41.2163 21.9789 41.089 21.9627C41.013 22.3151 40.9529 22.6487 40.9133 22.9854ZM41.1187 21.8664C41.1187 21.8665 41.1183 21.867 41.1175 21.8681C41.1182 21.8669 41.1186 21.8664 41.1187 21.8664ZM40.941 21.9523C40.9389 21.9525 40.9378 21.9525 40.9378 21.9525C40.9377 21.9525 40.9388 21.9524 40.941 21.9523ZM42.3291 22.2565C42.3291 22.2565 42.329 22.2564 42.3287 22.2563Z" fill="black"/>
<path fill-rule="evenodd" clip-rule="evenodd" d="M21.3788 23.3551C21.4567 22.9335 21.8106 22.6152 22.2353 22.6152C23.268 22.6152 24.4791 23.0465 25.2436 23.8296C25.6395 24.2351 25.9658 24.7907 25.9982 25.4736C26.031 26.166 25.7538 26.8204 25.2586 27.3975C24.7083 28.0388 24.0369 28.2582 23.4055 28.2687C22.8217 28.2784 22.2542 28.1086 21.8607 27.9907C21.4619 27.8712 21.2561 27.5471 21.1699 27.3868C21.0679 27.1969 21.002 26.9876 20.9568 26.8038C20.8648 26.4289 20.8174 25.9849 20.8045 25.5716C20.7916 25.1596 20.8111 24.7181 20.8799 24.349C20.9132 24.1708 20.9678 23.9537 21.068 23.7551C21.1151 23.662 21.2127 23.4944 21.3788 23.3551ZM22.7466 24.5002C22.7046 24.5758 22.6524 24.6449 22.5917 24.7051C22.5571 24.8941 22.5385 25.1856 22.5487 25.5117C22.5584 25.8237 22.5928 26.1129 22.6397 26.3172C22.9236 26.3946 23.1621 26.4422 23.3778 26.4386C23.6178 26.4346 23.7934 26.369 23.9615 26.1731C24.2369 25.8521 24.2593 25.6508 24.2552 25.5644C24.2507 25.4687 24.2037 25.3228 24.0243 25.1391C23.7366 24.8444 23.2484 24.6037 22.7466 24.5002Z" fill="black"/>
<path fill-rule="evenodd" clip-rule="evenodd" d="M41.4348 29.6603C41.6288 29.9813 41.8077 30.6016 41.0117 31.0089C40.8966 31.0678 40.8069 31.1319 40.7054 31.215C40.6883 31.2291 40.6663 31.2477 40.6406 31.2695C40.552 31.3446 40.4198 31.4567 40.2935 31.5436C40.0944 31.6806 39.8357 31.8161 39.4729 31.9103C39.1225 32.0014 38.7335 32.0388 38.3007 32.0388C37.8355 32.0388 37.343 31.9664 36.9579 31.7345C36.5812 31.5077 36.4627 31.2207 36.4225 31.0103C36.3829 30.803 36.4049 30.5875 36.424 30.4258C36.4284 30.3886 36.4328 30.3535 36.4369 30.3201C36.4534 30.1876 36.4666 30.0811 36.4666 29.9758C36.4666 29.914 36.4803 29.8542 36.5059 29.7976C36.4513 29.6773 36.4513 29.5455 36.5179 29.4177C36.8211 28.8359 37.404 28.3849 38.3011 28.2877C39.1067 28.2005 39.8263 28.4428 40.299 28.6868C40.7915 28.9409 41.2138 29.2946 41.4348 29.6603ZM38.4268 29.7987C38.4521 29.8549 38.4656 29.9144 38.4656 29.9758C38.4656 30.1372 38.4443 30.3071 38.4272 30.4426C38.4237 30.4708 38.4203 30.4975 38.4174 30.5223C38.4054 30.6233 38.3994 30.6996 38.3993 30.7589C38.5892 30.7541 38.6816 30.7358 38.7205 30.7257C38.7533 30.7172 38.7798 30.7071 38.8296 30.6728C38.8824 30.6365 38.9178 30.6064 38.9776 30.5555C39.0153 30.5234 39.0625 30.4832 39.1298 30.4281C39.2423 30.3359 39.3832 30.2281 39.5682 30.118C39.4855 29.9837 39.2913 29.8096 39.0438 29.6819C38.8172 29.565 38.6775 29.5508 38.643 29.5489C38.6037 29.5684 38.5193 29.6298 38.4268 29.7987ZM38.6662 29.541C38.6666 29.5418 38.6608 29.5444 38.6476 29.5467C38.6591 29.5414 38.6657 29.5403 38.6662 29.541ZM38.2091 30.756C38.2091 30.756 38.2097 30.7561 38.211 30.7563C38.2097 30.7561 38.2091 30.756 38.2091 30.756ZM38.4138 30.8821C38.4144 30.8833 38.4146 30.8839 38.4146 30.884C38.4146 30.884 38.4143 30.8834 38.4138 30.8821Z" fill="black"/>
</svg>
