<svg width="77" height="67" viewBox="0 0 77 67" fill="none" xmlns="http://www.w3.org/2000/svg">
<path fill-rule="evenodd" clip-rule="evenodd" d="M46.354 2.52719C47.5492 1.18531 49.4796 0 51.9676 0C53.0063 0 53.881 0.217991 54.1642 0.28915C54.6031 0.399417 55.037 0.536192 55.4254 0.680064C55.4312 0.682188 55.4385 0.684847 55.4472 0.688044C55.6392 0.758224 56.5398 1.08738 57.4109 1.70074C57.6312 1.85592 58.401 2.40117 59.0992 3.35646C59.1826 3.47054 59.2922 3.63171 59.4134 3.83458C60.4307 4.31745 61.2945 4.89347 61.9627 5.40364C63.0799 6.25656 64.1914 7.34085 65.0611 8.55579C65.2041 8.75558 65.3565 8.9382 65.7211 9.37513C65.7667 9.42973 65.8155 9.48831 65.8681 9.55139C66.2674 10.0302 66.8946 10.7878 67.4864 11.7063C67.6081 11.8952 67.7188 12.0664 67.8348 12.2392C67.9506 12.4116 68.0522 12.5564 68.1397 12.6737C68.1454 12.6814 68.151 12.6888 68.1563 12.6959C68.6454 13.0736 69.3531 13.6456 70.041 14.2755C70.4795 14.6771 71.0633 15.2411 71.6 15.8878C71.8676 16.2103 72.2304 16.6805 72.5698 17.264C72.8237 17.7007 73.3138 18.6154 73.5441 19.8622C73.5828 19.9775 73.6621 20.2139 73.7313 20.442C73.8199 20.734 73.9406 21.1648 74.0339 21.6772C74.3189 23.2409 74.3709 24.5878 74.3709 25.8155C74.3709 25.9772 74.3787 26.26 74.3888 26.6255C74.4223 27.8384 74.481 29.9621 74.3628 31.5947C74.1984 33.8673 73.6422 37.643 70.9064 40.694C70.8804 40.7231 70.8143 40.8012 70.6394 41.0372C70.6167 41.0678 70.5845 41.1116 70.5453 41.1651C70.389 41.3782 70.1198 41.7455 69.8813 42.0492C69.1739 42.9503 67.9958 44.2931 66.1169 45.3348C66.0061 45.3961 65.7477 45.5701 65.0461 46.1529C64.973 46.2137 64.8898 46.2834 64.7979 46.3606C64.2226 46.8432 63.3051 47.6131 62.3578 48.2576C59.3012 50.3372 55.3869 50.9597 53.4591 51.206C53.385 51.2358 53.2082 51.3101 52.8907 51.4704C52.7218 51.5557 52.5485 51.6461 52.3205 51.7651C52.108 51.8759 51.8437 52.0137 51.5691 52.1515C51.1092 52.3822 50.5142 52.6674 49.8311 52.9319C49.7435 52.9943 49.6345 53.075 49.4704 53.1985C49.448 53.2154 49.4232 53.2341 49.3964 53.2543C49.235 53.376 49.0015 53.552 48.7769 53.7139C48.2215 54.1141 47.7021 54.4113 47.2974 54.6252C46.9558 54.8057 46.6151 54.9677 46.4256 55.0579C46.4047 55.0678 46.3857 55.0768 46.3686 55.085C46.2781 55.1281 46.2115 55.1609 46.1649 55.1841C45.3097 55.8002 44.4878 56.1272 43.9166 56.3076C43.821 56.3378 43.7276 56.3652 43.6376 56.3902C43.6251 56.3985 43.6122 56.4071 43.5987 56.4161L43.5281 56.463C43.376 56.5641 43.1678 56.7021 42.9413 56.8452C41.382 57.8307 39.7796 58.3088 38.5893 58.5609C38.4803 58.6325 38.3202 58.7441 38.0917 58.915C37.9052 59.0546 37.7094 59.206 37.4678 59.3937L37.404 59.4433C37.1902 59.6094 36.9347 59.8081 36.6781 60.002C36.1342 60.4131 35.3478 60.9874 34.4408 61.4902C34.391 61.5178 34.3373 61.5477 34.28 61.5796C33.6613 61.924 32.6252 62.5007 31.5216 62.9736C30.7748 63.2937 29.7499 63.6794 28.5396 63.9183C27.7547 64.9436 25.7984 66.8278 22.624 66.7296C19.8526 66.644 18.1834 65.0527 17.7081 64.5642C17.6225 64.4762 17.541 64.3877 17.4636 64.2992C17.0917 64.2498 16.7659 64.1835 16.4963 64.1192C15.9818 63.9966 15.5526 63.8505 15.3437 63.7784C15.3356 63.7757 15.3276 63.7729 15.3197 63.7702C13.7791 63.496 12.5556 62.9297 11.8052 62.5455C11.365 62.3201 10.9647 62.0909 10.7035 61.9412L10.6835 61.9297C10.3886 61.7607 10.2589 61.6863 10.1408 61.6239C9.05835 61.0521 8.26831 60.3515 7.73301 59.7952C7.20774 59.2493 6.81438 58.7209 6.58471 58.4026C6.47557 58.2514 6.37173 58.1027 6.30234 58.0033L6.28606 57.98C6.24176 57.9166 6.20959 57.8707 6.18423 57.8348C3.44653 55.0691 0.23733 51.0371 0.234639 44.8274C0.234315 44.8193 0.232749 44.7846 0.226361 44.7133C0.215391 44.5908 0.199328 44.4526 0.167514 44.1861C0.164829 44.1636 0.161978 44.1398 0.158984 44.1149C0.103725 43.6551 0 42.7919 0 41.8408C0 39.94 0.590586 38.4202 1.33448 37.2572C1.16736 36.7159 1.01099 36.0401 0.957057 35.2788C0.950515 35.237 0.936578 35.1469 0.922531 35.0399C0.896417 34.8409 0.836014 34.347 0.860297 33.7249C0.887591 33.0258 1.01452 32.2885 1.27636 31.5439C1.51962 30.8522 1.81953 30.3266 2.02572 29.9998C2.32615 29.5238 2.69229 29.0774 2.73623 29.0238C2.73847 29.0211 2.73987 29.0194 2.74039 29.0187C4.13305 27.2816 5.92138 26.6832 6.31222 26.5524C6.32129 26.5494 6.32961 26.5466 6.33716 26.5441C7.00493 26.3192 7.60586 26.2078 7.97374 26.1496C8.71971 26.0316 9.45209 25.9891 9.96754 25.9891C9.97145 25.9891 9.97537 25.9891 9.97927 25.9891C10.2801 25.7449 10.5395 25.5632 10.6717 25.4713C10.6936 25.4561 10.716 25.4406 10.7381 25.4254C12.6703 23.632 14.7025 22.7342 16.3987 22.1878C17.1464 21.9468 17.8951 21.7556 18.4214 21.6211C18.4694 21.6088 18.5156 21.597 18.5598 21.5857C19.1604 21.4317 19.5543 21.326 19.9201 21.2044C20.9674 20.856 22.4743 20.4253 24.2404 20.3766C25.4939 20.0067 27.0544 19.6674 28.6212 19.6674C28.8441 19.6674 29.0775 19.6702 29.2813 19.6732C29.35 19.5715 29.429 19.4531 29.5194 19.3156C29.5514 19.267 29.5864 19.2132 29.6244 19.1547C30.1657 18.3232 31.3259 16.5409 33.1088 15.1177C34.5442 13.9719 35.9643 12.6157 36.8064 11.5353C36.8307 11.5041 36.8579 11.4688 36.8881 11.4296C37.3876 10.7818 38.6971 9.08369 40.8183 7.85652C40.9709 7.67242 41.141 7.48333 41.3296 7.29497C41.3303 7.29428 41.3499 7.27419 41.3969 7.22264C41.4565 7.15735 41.5202 7.0856 41.6302 6.96179L41.6529 6.93618C41.8471 6.71748 42.1823 6.34 42.5697 5.95352C42.7524 5.77118 42.9151 5.59318 43.2027 5.27851L43.228 5.25086C43.4818 4.97314 43.8936 4.52261 44.3704 4.07287C44.9417 3.534 45.5921 3.00684 46.354 2.52719ZM54.7152 27.9028C54.7151 27.9032 54.7057 27.9055 54.6876 27.9088C54.7063 27.9042 54.7154 27.9025 54.7152 27.9028ZM56.5615 21.4109C56.5609 21.4186 56.5605 21.4226 56.5604 21.4227C56.5604 21.4228 56.5607 21.4189 56.5615 21.4109ZM6.10549 57.7264C6.10543 57.7261 6.1091 57.7308 6.11671 57.741C6.10936 57.7317 6.10556 57.7266 6.10549 57.7264ZM38.7633 58.455C38.7633 58.4552 38.7592 58.4574 38.7513 58.4613C38.7594 58.4568 38.7634 58.4549 38.7633 58.455Z" fill="#FDAD01"/>
<path fill-rule="evenodd" clip-rule="evenodd" d="M52.4914 1.92972C52.2204 1.95615 52.1321 2.03396 52.0999 2.07371C51.7969 2.44703 51.3325 2.63852 51.0275 2.74637C50.6776 2.87012 50.2767 2.96748 49.9135 3.05002C49.7919 3.07763 49.6753 3.10347 49.5627 3.1284C49.3173 3.18273 49.0914 3.23278 48.8764 3.28762C48.5509 3.37069 48.371 3.4367 48.2944 3.47918C47.7533 3.77927 47.2621 4.16588 46.6941 4.61299L46.6447 4.65183C46.0779 5.0979 45.4332 5.60129 44.6825 5.99079C42.9444 6.89263 41.1003 8.22041 39.7167 9.58437C38.1789 11.1004 37.0958 12.8718 35.9446 14.7546C35.8921 14.8404 35.8395 14.9265 35.7867 15.0128C34.5948 16.96 33.3095 19.0095 31.3843 20.7177C30.4292 21.5651 29.1361 21.5473 28.2139 21.4889C27.9905 21.4747 27.7654 21.4556 27.5532 21.4375C27.5301 21.4355 27.5071 21.4336 27.4843 21.4316C27.2475 21.4115 27.0266 21.3934 26.8135 21.3823C26.3789 21.3595 26.0409 21.3701 25.7756 21.4282C24.8395 21.6333 23.8988 22.0121 22.8598 22.4306C22.7084 22.4915 22.555 22.5533 22.3991 22.6156C21.219 23.0868 19.9129 23.5766 18.556 23.7174C16.8989 23.8894 15.2527 24.6259 13.4398 25.437C13.3516 25.4764 13.2629 25.5161 13.1739 25.5558C11.3365 26.3765 9.2975 27.26 7.19606 27.26C6.38071 27.26 5.65568 27.6304 4.98478 28.3607C4.30055 29.1055 3.72161 30.1784 3.25687 31.4293C2.76608 32.7503 2.42899 34.1971 2.22012 35.5162C2.41761 35.692 2.54171 35.9465 2.54171 36.2295C2.54171 37.9466 2.76537 39.2795 3.24948 40.4522C3.73281 41.623 4.5013 42.696 5.67971 43.8577C6.83815 44.9998 7.6508 46.3255 8.37757 47.58C8.47708 47.7518 8.57476 47.9217 8.67139 48.0899C9.2976 49.1795 9.87944 50.192 10.6234 51.1088C11.5614 52.2646 13.1707 53.1373 15.0535 53.7183C16.9174 54.2933 18.9288 54.5451 20.5278 54.5451C25.7643 54.5451 32.2319 53.7352 36.9312 52.1316C38.049 51.7501 39.9556 50.555 41.7958 49.1012C42.6996 48.3871 43.557 47.6346 44.2604 46.9272C44.9761 46.2073 45.4861 45.58 45.7431 45.1155C47.0192 42.809 48.5433 41.5994 50.4177 41.0224C52.055 40.5185 53.9171 40.5218 55.882 40.5253C56.0457 40.5256 56.2102 40.5259 56.3753 40.5259C57.4235 40.5259 58.2909 40.687 59.0707 40.8318L59.0854 40.8345C59.8767 40.9815 60.5761 41.11 61.4117 41.11C62.224 41.11 62.871 40.7736 63.7097 40.2523C63.7852 40.2054 63.8627 40.1566 63.9423 40.1064C64.698 39.6305 65.6441 39.0346 66.8334 38.8214C67.6291 38.6788 68.1753 38.3667 68.5725 37.9665C68.9798 37.5563 69.2779 37.0049 69.4877 36.3226C69.9174 34.9256 69.9174 33.2083 69.9174 31.567V31.5564C69.9174 23.0868 65.3244 13.4071 59.2412 7.41009C58.4999 6.67921 57.946 5.87493 57.4596 5.16852C57.4039 5.08754 57.349 5.00785 57.2948 4.9297C56.7505 4.14444 56.264 3.49236 55.6018 2.97015C55.282 2.71791 54.443 2.27768 53.5692 2.05314C53.1394 1.94269 52.7685 1.90267 52.4914 1.92972ZM0.922407 39.5254C1.05272 40.0975 1.22478 40.6453 1.44407 41.1765C2.05108 42.647 2.99432 43.9279 4.30142 45.2165C5.2603 46.1618 5.96463 47.2896 6.68499 48.533C6.77826 48.694 6.87208 48.8575 6.96696 49.0229C7.58705 50.1035 8.25224 51.2628 9.10137 52.3092C10.3875 53.8941 12.422 54.9198 14.4713 55.5521C16.5397 56.1903 18.7489 56.4667 20.5278 56.4667C25.9117 56.4667 32.6076 55.6405 37.5688 53.9475C39.0204 53.4521 41.1447 52.0782 43.0147 50.6007C43.9661 49.8491 44.8837 49.0454 45.6524 48.2723C46.4086 47.5117 47.0678 46.7342 47.4543 46.0357C48.5264 44.098 49.678 43.2632 50.9986 42.8567C52.3375 42.4446 53.9028 42.4457 55.9846 42.4473C56.1128 42.4474 56.243 42.4475 56.3753 42.4475C57.2271 42.4475 57.9356 42.5764 58.7245 42.7229L58.758 42.7291C59.5305 42.8726 60.3861 43.0316 61.4117 43.0316C62.8286 43.0316 63.8914 42.411 64.7493 41.8778C64.8206 41.8335 64.8904 41.7898 64.959 41.747C65.7604 41.2464 66.3881 40.8543 67.182 40.712C68.3471 40.5032 69.2668 40.0144 69.9655 39.3106C70.6541 38.617 71.082 37.7615 71.3531 36.8802C71.8678 35.2065 71.8672 33.2464 71.8666 31.7028C71.8666 31.6535 71.8666 31.6047 71.8666 31.5564C71.8666 22.5072 67.0148 12.3561 60.6195 6.05131C60.0162 5.45651 59.5659 4.80404 59.0673 4.08156C59.0135 4.0037 58.9592 3.92503 58.9041 3.84552C58.3553 3.05371 57.7293 2.18716 56.8195 1.46963C56.2504 1.02082 55.1517 0.473988 54.0609 0.193669C53.5083 0.051683 52.8902 -0.0401847 52.2994 0.0174591C51.7161 0.0743689 51.0741 0.288943 50.6104 0.834075C50.5945 0.842361 50.5279 0.88157 50.3695 0.937601C50.1374 1.01964 49.8351 1.09584 49.4757 1.17751C49.3789 1.1995 49.2764 1.22221 49.1712 1.24551C48.9111 1.30314 48.6347 1.36439 48.388 1.42732C48.0537 1.51263 47.6559 1.62851 47.3388 1.80436C46.6563 2.18286 46.0531 2.65812 45.5184 3.07937C45.4883 3.1031 45.4584 3.12666 45.4287 3.15003C44.8498 3.60558 44.3394 3.9973 43.7747 4.29033C41.8688 5.27922 39.8649 6.72077 38.3384 8.22559C36.6271 9.91272 35.4315 11.8697 34.308 13.7089C34.2444 13.813 34.181 13.9167 34.1178 14.02C32.9184 15.9795 31.7641 17.7954 30.0803 19.2894C29.7932 19.5441 29.2943 19.6317 28.3389 19.5712C28.1383 19.5585 27.9351 19.5412 27.7197 19.5229L27.6516 19.5171C27.4156 19.4971 27.1657 19.4764 26.917 19.4634C26.4282 19.4378 25.8794 19.437 25.3528 19.5524C24.2419 19.7957 23.1325 20.2436 22.1102 20.6564C21.9607 20.7167 21.8129 20.7764 21.6674 20.8345C20.4815 21.308 19.4055 21.6971 18.3519 21.8064C16.368 22.0123 14.4491 22.873 12.7216 23.6478C12.6033 23.7008 12.486 23.7535 12.3695 23.8055C10.4712 24.6534 8.80996 25.3384 7.19606 25.3384C5.68661 25.3384 4.47155 26.0568 3.54002 27.0708C2.62183 28.0703 1.936 29.3972 1.42658 30.7684C0.407704 33.5109 0 36.6915 0 38.566C0 39.0794 0.408417 39.4987 0.922407 39.5254Z" fill="black"/>
<path fill-rule="evenodd" clip-rule="evenodd" d="M55.7906 0.984355C55.7906 0.440711 56.2326 0 56.7779 0C58.1454 0 59.1 1.02275 59.7179 1.74347C59.8869 1.94064 60.0263 2.11067 60.1577 2.27101C60.3226 2.47213 60.4749 2.658 60.6577 2.86307C60.9573 3.19933 61.2001 3.4198 61.4132 3.54373C62.8634 4.38708 64.1278 5.67225 65.2473 6.81017C65.4506 7.01683 65.6492 7.21862 65.8432 7.41203C66.6045 8.17105 67.4185 8.87975 68.2637 9.61525L68.2714 9.62192C69.1059 10.3481 69.9707 11.1007 70.7901 11.9176C71.4617 12.5871 71.9837 13.3038 72.4496 14.0004C72.6301 14.2704 72.7958 14.5269 72.9574 14.777C73.2312 15.2009 73.4934 15.6067 73.7964 16.0296C73.8751 16.1395 73.9649 16.2611 74.0604 16.3904C74.2835 16.6923 74.5375 17.0362 74.7538 17.371C75.0751 17.8685 75.3906 18.4559 75.5434 19.1223C75.7349 19.9577 75.8414 20.8202 75.9321 21.641C75.9483 21.7872 75.9639 21.9318 75.9794 22.0749C76.0525 22.7517 76.1219 23.3944 76.2266 24.0203C76.2743 24.3054 76.3407 24.5622 76.4176 24.8596C76.4475 24.975 76.4789 25.0966 76.5115 25.2283C76.6205 25.6693 76.7286 26.1823 76.7286 26.7546C76.7286 27.7205 76.7896 28.7653 76.855 29.883C76.8679 30.1046 76.881 30.3291 76.8939 30.5564C76.9704 31.9125 77.0357 33.3499 76.9779 34.7663C76.8632 37.5815 76.2579 40.4938 74.1034 42.6418C72.0225 44.7163 69.7797 46.697 67.2157 48.3841C65.8668 49.2716 64.3697 49.9286 62.8989 50.4963C62.2262 50.7559 61.5883 50.9868 60.9669 51.2118C60.1691 51.5007 59.3984 51.7797 58.6157 52.0971C57.2929 52.6335 55.9442 53.1065 54.6215 53.5704L54.5706 53.5883C53.2238 54.0606 51.9038 54.5245 50.6169 55.0493C50.1921 55.2226 49.7258 55.4297 49.2367 55.6469C48.1293 56.1388 46.905 56.6826 45.7811 57.0027C45.4085 57.1088 45.0515 57.3601 44.5355 57.7608C44.5043 57.785 44.4724 57.81 44.4396 57.8355C43.991 58.1854 43.4007 58.6459 42.702 58.8992C42.1339 59.1052 41.5217 59.4429 40.8522 59.8439C40.6863 59.9433 40.5149 60.0479 40.3402 60.1545C39.843 60.4578 39.3196 60.7771 38.8242 61.0371C38.058 61.4391 37.3044 61.8705 36.533 62.312L36.3833 62.3976C35.5657 62.8655 34.7277 63.3423 33.8679 63.7818C32.9685 64.2416 32.0431 64.6376 31.1562 65.017C31.0955 65.043 31.035 65.0689 30.9747 65.0947C30.0209 65.5032 29.1124 65.8981 28.2515 66.3603C27.5637 66.7295 26.7084 66.7481 26.0774 66.7279C25.7669 66.718 25.4549 66.695 25.1794 66.6746L25.1047 66.6691C24.7983 66.6466 24.5511 66.6302 24.348 66.6302C22.6044 66.6302 20.9703 66.5242 19.2614 66.3349C13.1092 65.6534 8.4772 62.1552 4.75789 57.6233C3.98957 56.6871 3.02827 55.4548 2.22032 54.1259C1.42289 52.8143 0.717837 51.3179 0.5557 49.8631C0.501512 49.3769 0.427763 48.8714 0.351712 48.3501C0.181613 47.1842 0 45.9393 0 44.6552V39.3428C0 38.7992 0.442064 38.3585 0.987377 38.3585C1.53269 38.3585 1.97475 38.7992 1.97475 39.3428V44.6552C1.97475 45.7982 2.12238 46.8017 2.28218 47.8881C2.36374 48.4426 2.44848 49.0186 2.51838 49.6457C2.63305 50.6746 3.1623 51.8771 3.90908 53.1054C4.64532 54.3164 5.53815 55.465 6.28627 56.3766C9.81828 60.6803 14.0242 63.774 19.4795 64.3783C21.1282 64.5609 22.6886 64.6615 24.348 64.6615C24.6357 64.6615 24.9552 64.6841 25.2497 64.7057L25.3195 64.7108C25.6021 64.7317 25.8737 64.7517 26.1407 64.7602C26.7654 64.7802 27.1368 64.7227 27.3152 64.6269C28.2629 64.1182 29.2467 63.6921 30.1953 63.2858C30.2511 63.2619 30.3068 63.2381 30.3624 63.2143C31.2632 62.8288 32.1299 62.4579 32.9668 62.03C33.7798 61.6144 34.5802 61.1594 35.4004 60.6901L35.5574 60.6002C36.3217 60.1628 37.1049 59.7144 37.9044 59.295C38.3389 59.067 38.7793 58.7983 39.2573 58.5067C39.4436 58.3931 39.6356 58.276 39.8351 58.1564C40.5153 57.7489 41.2667 57.3247 42.0272 57.049C42.4232 56.9055 42.7869 56.6232 43.3221 56.2076L43.3252 56.2052C43.8031 55.8341 44.4449 55.3358 45.2386 55.1097C46.229 54.8276 47.2223 54.3853 48.2577 53.9242C48.7824 53.6905 49.3178 53.4521 49.8692 53.2272C51.2092 52.6807 52.5754 52.201 53.9152 51.7311L53.9454 51.7206C55.2825 51.2516 56.593 50.792 57.8717 50.2735C58.6534 49.9565 59.5158 49.6432 60.3668 49.3341C60.9916 49.1072 61.6102 48.8826 62.186 48.6603C63.6119 48.11 64.9549 47.5128 66.1279 46.741C68.5424 45.1523 70.6809 43.2696 72.707 41.2497C74.3342 39.6274 74.897 37.3308 75.0048 34.6863C75.0584 33.3729 74.9985 32.0177 74.9222 30.6671C74.9099 30.4495 74.8972 30.2315 74.8844 30.0136C74.819 28.8965 74.7539 27.7832 74.7539 26.7546C74.7539 26.4242 74.6921 26.0961 74.594 25.6992C74.5726 25.6123 74.5482 25.5184 74.5225 25.419C74.4395 25.0985 74.3418 24.7215 74.2787 24.3439C74.1637 23.6563 74.0871 22.9455 74.0139 22.2674C73.999 22.1289 73.9842 21.9917 73.9692 21.8565C73.8792 21.0413 73.7824 20.2767 73.6183 19.561C73.5386 19.2134 73.3587 18.8475 73.0935 18.4369C72.9106 18.1538 72.7217 17.8984 72.5184 17.6236C72.413 17.4811 72.3037 17.3334 72.1895 17.1739C71.8635 16.719 71.5508 16.2356 71.2567 15.7811C71.1011 15.5406 70.9508 15.3082 70.8065 15.0925C70.369 14.4383 69.9307 13.845 69.3938 13.3097C68.6269 12.5452 67.81 11.8337 66.9651 11.0984L66.9489 11.0843C66.1174 10.3607 65.2582 9.61299 64.4468 8.80412C64.2245 8.58246 64.0067 8.36182 63.7918 8.14416C62.6647 7.00229 61.6183 5.94219 60.4181 5.24426C59.9293 4.96 59.5196 4.55016 59.1813 4.17057C58.9947 3.96111 58.7777 3.69798 58.5773 3.45501C58.4455 3.29513 58.3208 3.14397 58.2167 3.02258C57.548 2.24258 57.1357 1.96871 56.7779 1.96871C56.2326 1.96871 55.7906 1.528 55.7906 0.984355Z" fill="black"/>
<path fill-rule="evenodd" clip-rule="evenodd" d="M46.9686 5.35703C47.8097 5.08183 49.1137 4.92029 50.0985 5.74205C50.5912 6.15313 50.9666 6.6421 51.1695 7.22406C51.3737 7.81009 51.3646 8.38028 51.2612 8.8835C51.0974 9.68084 50.6451 10.4688 50.3205 11.0344C50.2779 11.1086 50.2374 11.179 50.2002 11.2451C49.9058 11.767 49.5301 12.1794 49.0626 12.4551C48.5974 12.7295 48.1227 12.8206 47.7023 12.8324C47.2964 12.8438 46.9106 12.7815 46.6101 12.7254C46.4957 12.704 46.3969 12.6844 46.3074 12.6667C46.1277 12.6311 45.985 12.6028 45.8284 12.5824C45.5221 12.5424 45.2563 12.3884 45.0653 12.1662C44.8959 12.1229 44.7261 12.0563 44.5623 11.9589C44.1927 11.7391 43.9391 11.4124 43.7936 11.051C43.5357 10.4105 43.6425 9.73381 43.7401 9.31819C43.9513 8.41881 44.4458 7.47598 44.639 7.11326C44.8909 6.64023 45.2858 6.27391 45.6595 6.00998C46.0486 5.73511 46.5016 5.50986 46.9686 5.35703ZM46.5637 10.1055C46.6637 10.1242 46.7604 10.1433 46.8481 10.1606C46.9204 10.1749 46.9866 10.188 47.0437 10.1987C47.3115 10.2487 47.4928 10.2705 47.6359 10.2665C47.7644 10.2629 47.8206 10.2389 47.8511 10.2208C47.8795 10.2041 47.9645 10.1467 48.079 9.94367C48.128 9.85666 48.175 9.77418 48.22 9.69507C48.3644 9.44139 48.4891 9.22233 48.6011 8.99916C48.7448 8.71249 48.8224 8.50385 48.8548 8.34578C48.8839 8.20446 48.8699 8.13922 48.8566 8.10107C48.8419 8.05891 48.7872 7.93525 48.5622 7.74724C48.5589 7.74506 48.5059 7.70974 48.3545 7.7017C48.1854 7.69271 47.959 7.72316 47.7053 7.80618C47.4542 7.88832 47.2199 8.00782 47.0394 8.13534C46.866 8.25782 46.8012 8.34525 46.7914 8.35851C46.7901 8.36023 46.7898 8.3607 46.7902 8.35982C46.6039 8.70955 46.3091 9.29526 46.1663 9.79197C46.3186 9.86752 46.4537 9.97476 46.5637 10.1055ZM45.6224 9.66767C45.6224 9.66766 45.6229 9.6677 45.624 9.66782C45.6229 9.66774 45.6224 9.66768 45.6224 9.66767Z" fill="black"/>
<path fill-rule="evenodd" clip-rule="evenodd" d="M42.0928 28.6335C42.2138 28.6778 42.313 28.7138 42.4007 28.7427C43.2924 29.0366 43.6226 29.7639 43.6331 30.4006C43.6431 31.0113 43.3838 31.6437 42.9821 32.1354C42.5796 32.6282 41.9427 33.086 41.1166 33.159C40.7818 33.1886 40.4528 33.152 40.1348 33.0547C39.9666 33.2449 39.708 33.3667 39.4181 33.3667C38.911 33.3667 38.5 32.9943 38.5 32.5348C38.5 32.274 38.5063 32.0215 38.5182 31.7741C38.4871 31.6345 38.496 31.4894 38.544 31.3538C38.5869 30.7764 38.6591 30.2185 38.7506 29.6385C38.8219 29.1862 39.0357 28.7426 39.5011 28.4685C39.9388 28.2107 40.4191 28.2123 40.7555 28.2546C41.1004 28.2979 41.4385 28.4026 41.705 28.4942C41.8312 28.5376 41.9551 28.583 42.0644 28.6231C42.074 28.6266 42.0835 28.6301 42.0928 28.6335ZM40.3888 31.3044C40.6613 31.5008 40.8487 31.511 40.9384 31.503C41.0937 31.4893 41.3071 31.3894 41.5064 31.1455C41.7064 30.9006 41.8003 30.6173 41.7972 30.4254C41.7961 30.3587 41.7839 30.3224 41.7775 30.3079C41.7762 30.3074 41.7748 30.3069 41.7732 30.3064C41.6503 30.2659 41.5218 30.219 41.4046 30.176C41.3959 30.1729 41.3873 30.1697 41.3788 30.1666C41.2663 30.1253 41.1603 30.0865 41.0537 30.0499C40.8496 29.9797 40.6879 29.9337 40.5623 29.9116C40.4872 30.3916 40.4278 30.8459 40.3888 31.3044ZM40.5915 29.7805C40.5915 29.7805 40.5912 29.7813 40.5904 29.7827C40.5911 29.7812 40.5915 29.7804 40.5915 29.7805ZM40.4161 29.8974C40.414 29.8977 40.413 29.8978 40.4129 29.8977C40.4129 29.8977 40.4139 29.8975 40.4161 29.8974ZM41.7864 30.3117C41.7864 30.3117 41.7863 30.3116 41.786 30.3114Z" fill="black"/>
<path fill-rule="evenodd" clip-rule="evenodd" d="M21.1057 31.8075C21.1827 31.2333 21.532 30.7998 21.9513 30.7998C22.9707 30.7998 24.1663 31.3871 24.9211 32.4537C25.3118 33.0059 25.634 33.7626 25.6659 34.6926C25.6983 35.6356 25.4247 36.5269 24.9359 37.3128C24.3926 38.1862 23.7298 38.4849 23.1065 38.4993C22.5302 38.5125 21.9699 38.2813 21.5815 38.1207C21.1878 37.9579 20.9846 37.5166 20.8996 37.2982C20.7989 37.0396 20.7338 36.7546 20.6892 36.5042C20.5983 35.9937 20.5516 35.3889 20.5388 34.8261C20.5261 34.265 20.5454 33.6637 20.6133 33.1611C20.6461 32.9184 20.7 32.6227 20.799 32.3523C20.8455 32.2253 20.9418 31.9971 21.1057 31.8075ZM22.4561 33.367C22.4146 33.47 22.363 33.564 22.3031 33.646C22.269 33.9034 22.2506 34.3004 22.2606 34.7445C22.2703 35.1695 22.3042 35.5633 22.3505 35.8416C22.6308 35.947 22.8662 36.0118 23.0791 36.0069C23.316 36.0014 23.4894 35.912 23.6554 35.6452C23.9272 35.2081 23.9493 34.9339 23.9453 34.8164C23.9408 34.6859 23.8944 34.4873 23.7173 34.237C23.4334 33.8357 22.9514 33.5079 22.4561 33.367Z" fill="black"/>
<path fill-rule="evenodd" clip-rule="evenodd" d="M40.9035 40.3941C41.095 40.8312 41.2716 41.676 40.4858 42.2307C40.3722 42.311 40.2836 42.3983 40.1834 42.5115C40.1665 42.5306 40.1448 42.556 40.1195 42.5856C40.032 42.6879 39.9015 42.8406 39.7768 42.959C39.5802 43.1455 39.3248 43.3301 38.9668 43.4584C38.6208 43.5825 38.2368 43.6333 37.8096 43.6333C37.3503 43.6333 36.8641 43.5347 36.4839 43.2189C36.112 42.9101 35.9951 42.5193 35.9554 42.2327C35.9163 41.9504 35.9381 41.6568 35.9569 41.4366C35.9613 41.386 35.9656 41.3382 35.9697 41.2927C35.9859 41.1123 35.999 40.9671 35.999 40.8238C35.999 40.7396 36.0125 40.6581 36.0378 40.5811C35.9838 40.4173 35.9838 40.2378 36.0496 40.0637C36.3489 39.2714 36.9243 38.6571 37.8099 38.5247C38.6052 38.4059 39.3156 38.736 39.7823 39.0682C40.2684 39.4143 40.6853 39.8961 40.9035 40.3941ZM37.934 40.5826C37.959 40.6592 37.9724 40.7401 37.9724 40.8238C37.9724 41.0436 37.9513 41.275 37.9345 41.4594C37.9309 41.4979 37.9276 41.5343 37.9247 41.5681C37.9129 41.7055 37.9069 41.8095 37.9069 41.8903C38.0944 41.8837 38.1855 41.8589 38.2239 41.8451C38.2563 41.8335 38.2825 41.8197 38.3317 41.7731C38.3838 41.7236 38.4188 41.6825 38.4778 41.6132C38.5149 41.5696 38.5616 41.5148 38.628 41.4398C38.7391 41.3142 38.8781 41.1674 39.0608 41.0174C38.9792 40.8345 38.7874 40.5975 38.5431 40.4236C38.3194 40.2643 38.1816 40.245 38.1475 40.2423C38.1087 40.2689 38.0253 40.3525 37.934 40.5826ZM38.1703 40.2316C38.1707 40.2327 38.165 40.2362 38.152 40.2393C38.1634 40.2322 38.1699 40.2306 38.1703 40.2316ZM37.7191 41.8863C37.7191 41.8863 37.7197 41.8864 37.7209 41.8867C37.7197 41.8865 37.7191 41.8863 37.7191 41.8863ZM37.9212 42.0581C37.9218 42.0597 37.922 42.0606 37.922 42.0606C37.922 42.0606 37.9217 42.0598 37.9212 42.0581Z" fill="black"/>
</svg>
