<svg width="570" height="314" viewBox="0 0 570 314" fill="none" xmlns="http://www.w3.org/2000/svg">
<path d="M1.76172 139.977C2.10788 137.208 23.8364 138.783 26.8991 138.783C36.709 138.783 42.8468 139.008 50.5773 145.88C72.8024 165.636 74.4264 199.56 76.9086 226.864C77.363 231.862 76.9749 246.938 76.9749 241.919C76.9749 237.188 76.9749 232.457 76.9749 227.726C76.9749 214.262 75.6173 198.783 63.2455 191.91C58.533 189.292 47.358 191.313 42.0877 191.313C31.42 191.313 22.1639 196.394 15.6901 205.109C10.4756 212.128 6.41006 238.082 16.088 242.384C26.6451 247.076 45.6901 243.958 55.4854 238.802C59.0463 236.928 61.5289 234.233 65.0363 232.17C67.1693 230.915 73.8759 228.551 74.5872 227.129" stroke="white" stroke-width="3" stroke-linecap="round"/>
<path d="M90.1068 135.201C90.1068 167.237 90.1068 199.272 90.1068 231.307C90.1068 235.088 90.1068 246.429 90.1068 242.649C90.1068 230.979 88.913 219.472 88.913 207.762C88.913 180.661 86.7885 152.902 91.8313 126.247C93.5404 117.214 97.6033 109.296 108.015 107.809C114.012 106.952 115.405 109.651 116.305 115.503C118.848 132.026 111.307 143.933 102.709 157.221C99.4678 162.23 93.8869 169.229 92.5609 175.196C92.3115 176.318 90.6546 178.072 92.4946 178.18C96.751 178.431 100.107 180.178 103.969 181.895C112.058 185.49 123.307 194.11 125.657 203.251C126.954 208.292 127.521 221.234 124.729 225.669C121.264 231.172 115.1 237.399 109.209 240.261C106.007 241.816 96.3401 246.494 93.6884 243.843" stroke="white" stroke-width="3" stroke-linecap="round"/>
<path d="M173.675 191.313C169.098 191.313 164.522 191.313 159.945 191.313C151.071 191.313 149.906 207.381 149.797 213.334C149.554 226.7 144.927 252.2 164.522 252.2C181.443 252.2 188.001 233.621 188.001 219.436C188.001 209.178 181.494 200.596 172.481 196.089" stroke="white" stroke-width="3" stroke-linecap="round"/>
<path d="M210.687 157.885C207.166 158.765 209.493 184.089 209.493 187.334C209.493 200.731 209.493 214.129 209.493 227.527C209.493 229.894 209.493 239.572 209.493 238.802C209.493 231.33 209.493 223.857 209.493 216.384C209.493 198.635 206.491 174.712 217.85 159.344C219.398 157.25 235.048 137.893 239.074 145.946C243.794 155.385 231.547 166.468 225.942 171.946C222.13 175.671 217.792 180.459 213.075 182.956C210.583 184.275 207.105 185.939 207.105 188.925C207.105 192.799 211.978 194.824 214.269 197.548C222.432 207.255 231.204 216.433 239.605 225.935C246.456 233.685 253.947 248.759 263.217 253.394" stroke="white" stroke-width="3" stroke-linecap="round"/>
<path d="M284.707 161.467C284.707 180.768 284.707 200.068 284.707 219.369C284.707 234.442 297.509 222.897 306.197 221.16" stroke="white" stroke-width="3" stroke-linecap="round"/>
<path d="M291.868 129.232C289.472 129.232 273.472 130.808 272.832 128.569C271.261 123.069 289.823 116.712 294.189 116.166C305.06 114.807 304.1 130.426 293.659 130.426C288.403 130.426 285.899 131.702 285.899 125.65C285.899 121.024 288.091 117.569 293.062 117.293C305.078 116.626 303.026 128.956 295.449 134.007" stroke="white" stroke-width="3" stroke-linecap="round"/>
<path d="M353.949 173.405C345.442 172.46 336.324 169.409 332.459 180.038C329.658 187.743 327.852 194.851 326.225 202.986C325.214 208.041 323.021 218.614 326.49 222.95C329.732 227.003 335.88 220.126 337.765 218.241C342.446 213.561 341.867 207.803 343.469 201.793C344.935 196.295 344.398 190.416 344.398 184.747C344.398 180.486 334.924 181.762 332.194 181.762C328.067 181.762 325.187 181.094 323.174 185.344C321.098 189.726 321.715 195.595 321.715 200.333C321.715 213.804 329.964 229.112 334.847 241.455C341.401 258.022 351.08 275.044 354.479 292.526C354.963 295.011 358.93 311.893 354.546 311.893C348.935 311.893 347.701 307.878 345.592 303.536C335.509 282.778 338.154 259.569 357.53 245.037" stroke="white" stroke-width="3" stroke-linecap="round"/>
<path d="M374.245 113.712C374.245 139.579 374.245 165.446 374.245 191.313C374.245 196.185 370.337 223.547 378.423 223.547C383.584 223.547 386.561 213.667 388.571 210.149C395.269 198.428 401.156 187.214 405.02 174.334C405.833 171.622 405.285 163.013 405.285 165.844C405.285 172.941 405.285 180.038 405.285 187.134C405.285 194.099 405.285 201.063 405.285 208.027C405.285 210.895 407.836 215.189 408.8 209.884C409.929 203.678 412.475 197.419 414.836 191.578C416.057 188.557 418.324 181.324 420.54 179.109C421.223 178.426 420.805 179.88 420.805 180.568C420.805 184.741 420.833 188.906 421.535 193.037C422.218 197.061 424.846 209.827 428.565 212.802C431.372 215.048 431.992 209.475 432.478 207.098C434.125 199.048 437.263 191.27 439.907 183.487C442.414 176.104 446.215 166.771 447.07 159.079C447.562 154.65 455.625 148.187 458.345 144.819C464.734 136.909 469.93 126.137 470.947 115.967C471.259 112.849 474.892 95.7702 470.947 93.6817C466.367 91.2569 463.489 96.9565 461.131 99.651C455.212 106.416 453.337 116.695 451.182 125.12C446.848 142.065 444.682 158.759 444.682 176.323C444.682 190.056 440.301 213.196 451.249 224.144C460.362 233.258 473.224 192.358 474.264 185.344C475.467 177.219 476.759 165.433 466.172 163.92C456.892 162.595 453.061 166.706 445.876 171.017" stroke="white" stroke-width="3" stroke-linecap="round"/>
<path d="M155.192 2.70154C165.075 2.70154 175.396 1.86663 185.241 2.76164C189.921 3.18708 188.727 12.9704 188.727 16.2239C188.727 23.8424 182.836 27.2194 176.888 31.3089C176.143 31.8205 171.213 34.6098 171.899 34.9149C175.016 36.3 181.051 35.1553 184.4 35.1553C205.928 35.1553 217.749 63.282 209.882 81.9127C204.176 95.4277 187.289 96.898 174.664 95.4951C162.787 94.1755 144.794 89.003 138.965 77.3451" stroke="white" stroke-width="3" stroke-linecap="round"/>
<path d="M250.389 52.4639C246.463 52.4639 239.825 51.1288 236.867 54.0866C232.308 58.646 233.081 63.7976 233.081 69.7726C233.081 74.6206 239.008 77.3716 242.336 73.4387C244.681 70.6674 250.389 61.1535 250.389 57.4522C250.389 53.6213 251.08 65.2643 252.793 68.6908C255.725 74.5547 259.647 71.1316 261.688 66.4671C264.799 59.356 271.216 50.9452 278.516 47.2954C284.318 44.3945 282.843 49.9857 282.843 54.6275C282.843 57.2464 281.375 69.0255 284.466 69.7125C288.049 70.5088 301.292 53.4389 303.998 49.459C306.036 46.4626 305.561 51.1387 305.561 52.5841C305.561 59.5957 305.561 66.6074 305.561 73.619C305.561 79.3685 305.561 85.118 305.561 90.8675C305.561 96.1118 305.561 85.5442 305.561 84.3768C305.561 77.3564 309.157 70.5262 312.292 64.3636C314.879 59.2779 319.47 49.9131 325.033 47.2954C325.474 47.0879 326.758 61.5785 327.257 63.8227C328.309 68.5559 340.29 51.9589 341.861 50.3004C344.336 47.6874 344.505 45.6577 344.505 51.3821C344.505 54.9683 344.306 58.6191 344.505 62.2001C344.929 69.8274 354.544 54.4283 355.323 53.0649C356.663 50.7194 357.543 51.7295 357.487 54.0265C357.3 61.6671 355.395 69.1464 354.722 76.7441C353.855 86.535 354.21 96.3864 353.4 106.193C352.994 111.109 353.026 136.919 344.505 135.702C334.472 134.268 346.96 112.411 348.352 109.739C355.375 96.2544 362.552 82.4286 370.588 69.5322C376.485 60.0699 384.58 48.339 395.95 45.1318C405.8 42.3537 400.758 47.9719 400.758 53.0649C400.758 63.3219 400.758 73.5789 400.758 83.8359C400.758 89.4919 403.949 106.151 397.513 109.558C391.497 112.743 389.26 106.498 390.001 101.685C390.362 99.3351 392.61 97.475 394.027 95.7356C397.146 91.9076 399.545 87.6565 402.321 83.5955C408.194 75.0033 414.894 66.9299 420.832 58.3537C423.37 54.6878 426.677 51.5933 428.825 47.656C430.946 43.7679 429.218 47.5505 428.825 50.3004C427.976 56.2427 426.721 63.3462 426.721 69.2317C426.721 70.3164 424.682 73.0819 424.558 70.8544C424.315 66.4873 425.855 64.7492 428.885 61.7193C433.185 57.4195 448.074 47.6082 442.227 49.2787C438.135 50.4478 435.376 58.2993 435.376 62.2001C435.376 69.831 452.583 63.3155 455.93 62.2001" stroke="white" stroke-width="3" stroke-linecap="round"/>
<path d="M488.382 48.1366C480.055 48.1366 467.484 41.1333 462.66 50.3002C460.554 54.3018 459.174 58.7036 459.174 63.2817C459.174 65.0551 458.305 69.2484 460.857 69.7124C463.414 70.1773 466.489 70.0302 468.369 68.1498C472.884 63.6345 478.145 59.8863 482.733 55.4688C484.503 53.7644 485.897 52.4133 487.841 50.9012C490.298 48.9904 489.327 54.4682 489.524 55.6491C491.267 66.1041 501.836 66.5271 510.018 66.5271" stroke="white" stroke-width="3" stroke-linecap="round"/>
<path d="M489.465 219.06C495.159 219.06 499.201 218.623 499.201 212.028C499.201 206.118 491.591 210.809 490.607 214.252C489.823 216.995 492.697 225.273 495.715 220.142C499.564 213.599 494.537 213.58 492.71 219.06" stroke="white" stroke-width="3" stroke-linecap="round"/>
<path d="M520.836 224.469C520.836 225.648 520.303 219.444 521.437 219.12C522.541 218.804 528.488 218.454 529.25 219.3C531.444 221.738 531.534 237.056 525.704 232.522C522.686 230.175 520.836 226.293 520.836 222.546C520.836 220.341 521.284 212.888 525.704 214.853C528.06 215.9 529.49 221.056 529.49 223.387C529.49 227.266 527.483 226.319 526.245 228.796" stroke="white" stroke-width="3" stroke-linecap="round"/>
<path d="M560.865 208.241C560.463 211.454 551.912 207.393 551.189 209.924C549.922 214.357 552.31 220.928 557.619 221.223C560.47 221.381 565.354 222.228 566.814 219.6C570.216 213.477 564.714 212.568 559.302 212.568C556.758 212.568 554.54 216.581 556.778 218.819C559.293 221.333 564.11 219.904 564.11 216.355C564.11 213.122 557.751 212.493 557.619 214.732C557.394 218.56 558.769 217.662 554.374 214.732" stroke="white" stroke-width="3" stroke-linecap="round"/>
</svg>
