<svg width="270" height="199" viewBox="0 0 270 199" fill="none" xmlns="http://www.w3.org/2000/svg">
<path d="M176.366 197.299C150.868 197.299 125.37 197.299 99.8722 197.299C78.6762 197.299 65.5791 194.386 46.896 185.045C28.2675 175.731 13.3192 160.615 4.81218 141.599C0.931032 132.924 2.58421 122.035 2.58421 112.76C2.58421 94.4903 11.7314 85.6662 24.8639 72.9036C52.9691 45.5901 84.8465 17.5471 123.885 7.92117C151.442 1.12626 188.741 -1.83707 215.232 10.2729C231.559 17.737 242.016 34.9452 249.889 50.2526C256.24 62.6022 266.145 73.5692 267.589 88.0043C270.139 113.503 265.425 132.996 243.7 148.283C239.386 151.319 228.487 165.562 222.163 163.755C217.391 162.392 222.397 148.419 223.648 146.055C229.051 135.849 226.62 138.745 225.257 148.283C224.511 153.509 223.69 165.994 220.43 170.068C213.471 178.767 230.332 170.563 233.179 170.563C240.564 170.563 248.609 168.335 256.573 168.335" stroke="white" stroke-width="3" stroke-linecap="round"/>
</svg>
